<svg xmlns="http://www.w3.org/2000/svg" xmlns:xlink="http://www.w3.org/1999/xlink" width="1200" zoomAndPan="magnify"
    viewBox="0 0 1200 630" height="630" preserveAspectRatio="xMidYMid meet" version="1.0">
    <!-- White background -->
    <rect width="1200" height="630" fill="white" />
    <!-- Centered logo content -->
    <g transform="translate(240.375, 85.875)">
        <defs>
            <g />
            <clipPath id="5b9d3419ca">
                <path d="M 445 107 L 651 107 L 651 219 L 445 219 Z M 445 107 " clip-rule="nonzero" />
            </clipPath>
            <clipPath id="290f42eec2">
                <path
                    d="M 548.410156 4.652344 L 706.71875 162.960938 L 548.410156 321.273438 L 390.097656 162.960938 Z M 548.410156 4.652344 "
                    clip-rule="nonzero" />
            </clipPath>
            <clipPath id="7cd7f98858">
                <path
                    d="M 548.410156 4.652344 L 706.71875 162.960938 L 548.410156 321.273438 L 390.097656 162.960938 Z M 548.410156 4.652344 "
                    clip-rule="nonzero" />
            </clipPath>
        </defs>
        <g fill="#845158" fill-opacity="1">
            <g transform="translate(44.045686, 219.931008)">
                <g>
                    <path
                        d="M 127.3125 -90.25 C 121.332031 -89.457031 116.816406 -87.597656 113.765625 -84.671875 C 110.710938 -81.753906 108.617188 -78.132812 107.484375 -73.8125 C 106.359375 -69.5 105.796875 -64.953125 105.796875 -60.171875 C 105.796875 -55.390625 105.863281 -50.671875 106 -46.015625 C 106 -45.085938 106.097656 -42.992188 106.296875 -39.734375 C 106.492188 -36.484375 106.65625 -32.765625 106.78125 -28.578125 C 106.914062 -24.398438 106.882812 -20.285156 106.6875 -16.234375 C 106.488281 -12.179688 106.023438 -8.796875 105.296875 -6.078125 C 104.566406 -3.359375 103.472656 -1.863281 102.015625 -1.59375 C 99.617188 -1.332031 96.925781 -0.96875 93.9375 -0.5 C 90.945312 -0.03125 88.054688 0.101562 85.265625 -0.09375 C 82.484375 -0.300781 80.160156 -1.132812 78.296875 -2.59375 C 76.441406 -4.050781 75.515625 -6.507812 75.515625 -9.96875 C 75.378906 -19.789062 75.3125 -29.648438 75.3125 -39.546875 C 75.3125 -49.441406 74.910156 -59.238281 74.109375 -68.9375 C 73.710938 -74.382812 72.21875 -79.195312 69.625 -83.375 C 67.039062 -87.5625 62.628906 -89.921875 56.390625 -90.453125 C 55.984375 -90.585938 55.453125 -90.65625 54.796875 -90.65625 C 49.210938 -90.65625 44.726562 -89.328125 41.34375 -86.671875 C 37.957031 -84.015625 35.429688 -80.5625 33.765625 -76.3125 C 32.109375 -72.0625 31.015625 -67.578125 30.484375 -62.859375 C 29.953125 -58.140625 29.753906 -53.65625 29.890625 -49.40625 C 30.015625 -43.5625 30.109375 -37.679688 30.171875 -31.765625 C 30.242188 -25.859375 30.28125 -19.984375 30.28125 -14.140625 C 30.414062 -9.492188 29.953125 -6.273438 28.890625 -4.484375 C 27.828125 -2.691406 26.03125 -1.628906 23.5 -1.296875 C 20.976562 -0.960938 17.53125 -0.597656 13.15625 -0.203125 C 8.101562 0.203125 4.710938 -0.921875 2.984375 -3.578125 C 1.265625 -6.242188 0.40625 -9.898438 0.40625 -14.546875 C 0.40625 -23.972656 0.40625 -33.46875 0.40625 -43.03125 C 0.40625 -52.59375 0.40625 -62.15625 0.40625 -71.71875 C 0.40625 -76.5 0.40625 -81.25 0.40625 -85.96875 C 0.40625 -90.6875 0.40625 -95.4375 0.40625 -100.21875 C 0.40625 -102.070312 0.300781 -104.328125 0.09375 -106.984375 C -0.101562 -109.640625 0.460938 -111.632812 1.796875 -112.96875 C 2.328125 -113.632812 3.585938 -113.96875 5.578125 -113.96875 C 5.972656 -113.96875 6.4375 -113.96875 6.96875 -113.96875 C 7.5 -113.96875 8.03125 -113.898438 8.5625 -113.765625 C 10.425781 -113.492188 12.21875 -113.191406 13.9375 -112.859375 C 15.664062 -112.535156 17.394531 -112.238281 19.125 -111.96875 C 21.914062 -111.4375 24.738281 -110.9375 27.59375 -110.46875 C 30.445312 -110.007812 33.335938 -109.582031 36.265625 -109.1875 C 36.523438 -109.1875 36.753906 -109.1875 36.953125 -109.1875 C 37.148438 -109.1875 37.316406 -109.1875 37.453125 -109.1875 C 38.785156 -109.1875 39.984375 -109.382812 41.046875 -109.78125 C 42.109375 -110.175781 43.101562 -110.507812 44.03125 -110.78125 C 44.289062 -111.039062 44.585938 -111.203125 44.921875 -111.265625 C 45.253906 -111.335938 45.488281 -111.441406 45.625 -111.578125 C 49.34375 -112.765625 52.726562 -113.691406 55.78125 -114.359375 C 58.84375 -115.023438 61.703125 -115.359375 64.359375 -115.359375 C 72.453125 -115.359375 79.359375 -112.238281 85.078125 -106 C 88.796875 -102.28125 92.644531 -100.421875 96.625 -100.421875 C 99.019531 -100.421875 101.179688 -100.953125 103.109375 -102.015625 C 105.035156 -103.078125 106.796875 -104.203125 108.390625 -105.390625 C 108.785156 -105.660156 109.148438 -105.925781 109.484375 -106.1875 C 109.816406 -106.457031 110.113281 -106.660156 110.375 -106.796875 C 119.007812 -112.640625 128.175781 -115.5625 137.875 -115.5625 C 144.507812 -115.5625 150.816406 -114.164062 156.796875 -111.375 C 162.773438 -108.582031 167.957031 -104.460938 172.34375 -99.015625 C 175.257812 -95.429688 177.347656 -91.347656 178.609375 -86.765625 C 179.867188 -82.179688 180.664062 -77.332031 181 -72.21875 C 181.332031 -67.101562 181.460938 -62.019531 181.390625 -56.96875 C 181.328125 -51.925781 181.5 -47.210938 181.90625 -42.828125 C 182.4375 -36.984375 182.96875 -30.941406 183.5 -24.703125 C 184.03125 -18.460938 183.164062 -12.488281 180.90625 -6.78125 C 179.976562 -4.519531 178.582031 -3.054688 176.71875 -2.390625 C 174.863281 -1.722656 172.804688 -1.488281 170.546875 -1.6875 C 168.285156 -1.894531 165.960938 -1.929688 163.578125 -1.796875 C 160.253906 -1.796875 157.828125 -1.960938 156.296875 -2.296875 C 154.773438 -2.628906 153.78125 -3.554688 153.3125 -5.078125 C 152.84375 -6.609375 152.476562 -9.097656 152.21875 -12.546875 C 151.6875 -22.378906 151.484375 -32.273438 151.609375 -42.234375 C 151.742188 -52.203125 151.28125 -61.96875 150.21875 -71.53125 C 149.5625 -77.5 147.535156 -82.175781 144.140625 -85.5625 C 140.753906 -88.957031 136.40625 -90.65625 131.09375 -90.65625 C 130.5625 -90.65625 129.960938 -90.617188 129.296875 -90.546875 C 128.640625 -90.484375 127.976562 -90.382812 127.3125 -90.25 Z M 127.3125 -90.25 " />
                </g>
            </g>
        </g>
        <g fill="#845158" fill-opacity="1">
            <g transform="translate(233.71569, 219.931008)">
                <g>
                    <path
                        d="M 7.578125 -125.515625 C 4.648438 -127.378906 2.519531 -130.003906 1.1875 -133.390625 C -0.132812 -136.773438 -0.195312 -140.457031 1 -144.4375 C 3.257812 -152.28125 8.570312 -156.332031 16.9375 -156.59375 L 17.328125 -156.59375 C 21.453125 -156.59375 24.90625 -155.5 27.6875 -153.3125 C 30.476562 -151.125 32.335938 -148.101562 33.265625 -144.25 C 34.460938 -139.46875 34 -135.082031 31.875 -131.09375 C 29.75 -127.113281 26.164062 -124.523438 21.125 -123.328125 C 18.59375 -122.796875 16.164062 -122.726562 13.84375 -123.125 C 11.519531 -123.519531 9.429688 -124.316406 7.578125 -125.515625 Z M 4.78125 -105.59375 C 6.644531 -106.789062 9.300781 -107.320312 12.75 -107.1875 C 14.738281 -107.1875 16.925781 -107.253906 19.3125 -107.390625 C 21.707031 -107.523438 23.9375 -107.289062 26 -106.6875 C 28.0625 -106.09375 29.421875 -104.734375 30.078125 -102.609375 C 31.273438 -99.285156 31.675781 -95.265625 31.28125 -90.546875 C 30.882812 -85.835938 30.6875 -81.753906 30.6875 -78.296875 C 30.8125 -70.191406 30.875 -62.15625 30.875 -54.1875 C 30.875 -46.21875 30.941406 -38.179688 31.078125 -30.078125 C 31.078125 -28.753906 31.242188 -26.53125 31.578125 -23.40625 C 31.910156 -20.289062 32.109375 -16.9375 32.171875 -13.34375 C 32.242188 -9.757812 31.878906 -6.707031 31.078125 -4.1875 C 30.285156 -1.664062 28.691406 -0.335938 26.296875 -0.203125 C 23.242188 -0.0664062 20.054688 0.03125 16.734375 0.09375 C 13.410156 0.164062 10.222656 0 7.171875 -0.40625 C 5.046875 -0.664062 3.582031 -1.820312 2.78125 -3.875 C 1.988281 -5.9375 1.554688 -8.425781 1.484375 -11.34375 C 1.421875 -14.269531 1.519531 -17.0625 1.78125 -19.71875 C 2.050781 -22.375 2.1875 -24.4375 2.1875 -25.90625 C 2.0625 -31.34375 1.960938 -36.816406 1.890625 -42.328125 C 1.828125 -47.847656 1.796875 -53.332031 1.796875 -58.78125 C 1.660156 -63.425781 1.59375 -68.070312 1.59375 -72.71875 C 1.59375 -77.363281 1.523438 -81.945312 1.390625 -86.46875 C 1.390625 -90.320312 1.320312 -94.039062 1.1875 -97.625 C 1.0625 -101.207031 2.257812 -103.863281 4.78125 -105.59375 Z M 4.78125 -105.59375 " />
                </g>
            </g>
        </g>
        <g fill="#845158" fill-opacity="1">
            <g transform="translate(273.761277, 219.931008)">
                <g>
                    <path
                        d="M 101.8125 -1 C 98.351562 -1.132812 94.863281 -1.164062 91.34375 -1.09375 C 87.820312 -1.03125 84.269531 -1 80.6875 -1 C 79.894531 -1 79.265625 -2.390625 78.796875 -5.171875 C 78.328125 -7.960938 78.023438 -11.613281 77.890625 -16.125 C 77.765625 -20.644531 77.703125 -25.53125 77.703125 -30.78125 C 77.703125 -36.03125 77.765625 -41.109375 77.890625 -46.015625 C 78.023438 -50.929688 78.125 -55.179688 78.1875 -58.765625 C 78.257812 -62.359375 78.296875 -64.6875 78.296875 -65.75 C 78.160156 -73.1875 77 -78.828125 74.8125 -82.671875 C 72.625 -86.523438 69.898438 -89.179688 66.640625 -90.640625 C 63.390625 -92.109375 60.171875 -92.84375 56.984375 -92.84375 L 56.578125 -92.84375 C 49.003906 -92.84375 42.859375 -90.285156 38.140625 -85.171875 C 33.429688 -80.054688 30.945312 -73.382812 30.6875 -65.15625 C 30.550781 -59.84375 30.484375 -54.523438 30.484375 -49.203125 C 30.484375 -43.890625 30.484375 -38.578125 30.484375 -33.265625 C 30.617188 -29.148438 30.984375 -24.601562 31.578125 -19.625 C 32.171875 -14.644531 32.070312 -10.097656 31.28125 -5.984375 C 30.75 -2.921875 29.519531 -1.289062 27.59375 -1.09375 C 25.664062 -0.894531 23.507812 -0.726562 21.125 -0.59375 C 19.53125 -0.46875 17.4375 -0.300781 14.84375 -0.09375 C 12.25 0.101562 9.722656 0.00390625 7.265625 -0.390625 C 4.816406 -0.796875 2.992188 -1.796875 1.796875 -3.390625 C 0.328125 -5.515625 -0.207031 -8.070312 0.1875 -11.0625 C 0.59375 -14.050781 0.863281 -16.671875 1 -18.921875 C 1.53125 -26.234375 1.925781 -33.671875 2.1875 -41.234375 C 2.59375 -55.585938 2.195312 -69.867188 1 -84.078125 C 0.726562 -86.867188 0.523438 -90.125 0.390625 -93.84375 C 0.265625 -97.5625 0.566406 -101.113281 1.296875 -104.5 C 2.023438 -107.882812 3.484375 -110.539062 5.671875 -112.46875 C 7.867188 -114.394531 11.160156 -114.957031 15.546875 -114.15625 C 19.128906 -113.5 22.644531 -112.671875 26.09375 -111.671875 C 29.550781 -110.671875 33.070312 -109.84375 36.65625 -109.1875 C 36.925781 -109.1875 37.222656 -109.1875 37.546875 -109.1875 C 37.878906 -109.1875 38.113281 -109.1875 38.25 -109.1875 C 40.769531 -109.1875 43.289062 -109.679688 45.8125 -110.671875 C 48.34375 -111.671875 50.9375 -112.703125 53.59375 -113.765625 C 56.25 -114.828125 58.90625 -115.425781 61.5625 -115.5625 C 69.269531 -116.21875 76.578125 -114.890625 83.484375 -111.578125 C 89.453125 -108.785156 94.0625 -105.128906 97.3125 -100.609375 C 100.570312 -96.097656 102.929688 -91.117188 104.390625 -85.671875 C 105.859375 -80.222656 106.789062 -74.578125 107.1875 -68.734375 C 107.582031 -62.890625 107.914062 -57.113281 108.1875 -51.40625 C 108.1875 -50.207031 108.316406 -47.75 108.578125 -44.03125 C 108.847656 -40.3125 109.015625 -36.023438 109.078125 -31.171875 C 109.148438 -26.328125 109.050781 -21.613281 108.78125 -17.03125 C 108.519531 -12.445312 107.890625 -8.628906 106.890625 -5.578125 C 105.890625 -2.523438 104.394531 -1 102.40625 -1 C 102.269531 -1 102.171875 -1 102.109375 -1 C 102.046875 -1 101.945312 -1 101.8125 -1 Z M 101.8125 -1 " />
                </g>
            </g>
        </g>
        <g fill="#845158" fill-opacity="1">
            <g transform="translate(388.917938, 219.931008)">
                <g>
                    <path
                        d="M 7.578125 -125.515625 C 4.648438 -127.378906 2.519531 -130.003906 1.1875 -133.390625 C -0.132812 -136.773438 -0.195312 -140.457031 1 -144.4375 C 3.257812 -152.28125 8.570312 -156.332031 16.9375 -156.59375 L 17.328125 -156.59375 C 21.453125 -156.59375 24.90625 -155.5 27.6875 -153.3125 C 30.476562 -151.125 32.335938 -148.101562 33.265625 -144.25 C 34.460938 -139.46875 34 -135.082031 31.875 -131.09375 C 29.75 -127.113281 26.164062 -124.523438 21.125 -123.328125 C 18.59375 -122.796875 16.164062 -122.726562 13.84375 -123.125 C 11.519531 -123.519531 9.429688 -124.316406 7.578125 -125.515625 Z M 4.78125 -105.59375 C 6.644531 -106.789062 9.300781 -107.320312 12.75 -107.1875 C 14.738281 -107.1875 16.925781 -107.253906 19.3125 -107.390625 C 21.707031 -107.523438 23.9375 -107.289062 26 -106.6875 C 28.0625 -106.09375 29.421875 -104.734375 30.078125 -102.609375 C 31.273438 -99.285156 31.675781 -95.265625 31.28125 -90.546875 C 30.882812 -85.835938 30.6875 -81.753906 30.6875 -78.296875 C 30.8125 -70.191406 30.875 -62.15625 30.875 -54.1875 C 30.875 -46.21875 30.941406 -38.179688 31.078125 -30.078125 C 31.078125 -28.753906 31.242188 -26.53125 31.578125 -23.40625 C 31.910156 -20.289062 32.109375 -16.9375 32.171875 -13.34375 C 32.242188 -9.757812 31.878906 -6.707031 31.078125 -4.1875 C 30.285156 -1.664062 28.691406 -0.335938 26.296875 -0.203125 C 23.242188 -0.0664062 20.054688 0.03125 16.734375 0.09375 C 13.410156 0.164062 10.222656 0 7.171875 -0.40625 C 5.046875 -0.664062 3.582031 -1.820312 2.78125 -3.875 C 1.988281 -5.9375 1.554688 -8.425781 1.484375 -11.34375 C 1.421875 -14.269531 1.519531 -17.0625 1.78125 -19.71875 C 2.050781 -22.375 2.1875 -24.4375 2.1875 -25.90625 C 2.0625 -31.34375 1.960938 -36.816406 1.890625 -42.328125 C 1.828125 -47.847656 1.796875 -53.332031 1.796875 -58.78125 C 1.660156 -63.425781 1.59375 -68.070312 1.59375 -72.71875 C 1.59375 -77.363281 1.523438 -81.945312 1.390625 -86.46875 C 1.390625 -90.320312 1.320312 -94.039062 1.1875 -97.625 C 1.0625 -101.207031 2.257812 -103.863281 4.78125 -105.59375 Z M 4.78125 -105.59375 " />
                </g>
            </g>
        </g>
        <g fill="#845158" fill-opacity="1">
            <g transform="translate(234.461789, 350.638756)">
                <g>
                    <path
                        d="M 98.8125 -12.75 C 90.976562 -6.113281 81.679688 -2.226562 70.921875 -1.09375 C 60.171875 0.03125 49.476562 -1.992188 38.84375 -7.171875 C 38.3125 -7.566406 37.582031 -7.765625 36.65625 -7.765625 C 35.726562 -7.765625 34.800781 -7.5 33.875 -6.96875 C 32.28125 -6.039062 31.484375 -4.582031 31.484375 -2.59375 C 31.484375 -0.59375 31.484375 1.398438 31.484375 3.390625 C 31.484375 5.378906 31.484375 7.367188 31.484375 9.359375 C 31.484375 10.691406 31.613281 12.851562 31.875 15.84375 C 32.144531 18.832031 32.378906 22.050781 32.578125 25.5 C 32.773438 28.957031 32.738281 32.046875 32.46875 34.765625 C 32.207031 37.484375 31.476562 39.242188 30.28125 40.046875 C 29.75 40.304688 29.148438 40.503906 28.484375 40.640625 C 27.828125 40.773438 27.164062 40.910156 26.5 41.046875 C 23.039062 41.441406 19.484375 41.867188 15.828125 42.328125 C 12.179688 42.796875 8.960938 42.460938 6.171875 41.328125 C 3.390625 40.203125 1.664062 37.453125 1 33.078125 C 0.0625 25.234375 -0.140625 17.425781 0.390625 9.65625 C 0.929688 1.882812 1.203125 -5.847656 1.203125 -13.546875 C 1.203125 -28.554688 1.234375 -43.796875 1.296875 -59.265625 C 1.359375 -74.742188 1.257812 -90.117188 1 -105.390625 C 1 -108.179688 1.164062 -110.175781 1.5 -111.375 C 1.832031 -112.570312 2.195312 -113.367188 2.59375 -113.765625 C 3.789062 -114.960938 5.75 -115.328125 8.46875 -114.859375 C 11.1875 -114.390625 13.972656 -113.722656 16.828125 -112.859375 C 19.691406 -112.003906 21.785156 -111.441406 23.109375 -111.171875 C 28.554688 -110.242188 33.671875 -110.175781 38.453125 -110.96875 C 43.234375 -111.769531 48.046875 -112.765625 52.890625 -113.953125 C 57.742188 -115.148438 62.828125 -115.75 68.140625 -115.75 C 75.710938 -115.75 82.550781 -114.1875 88.65625 -111.0625 C 94.769531 -107.945312 99.953125 -103.695312 104.203125 -98.3125 C 108.453125 -92.9375 111.804688 -86.925781 114.265625 -80.28125 C 116.722656 -73.644531 118.082031 -66.773438 118.34375 -59.671875 C 118.613281 -52.566406 117.75 -45.691406 115.75 -39.046875 C 114.03125 -33.472656 111.738281 -28.492188 108.875 -24.109375 C 106.019531 -19.722656 102.664062 -15.9375 98.8125 -12.75 Z M 58.96875 -24.109375 C 59.238281 -24.109375 59.4375 -24.109375 59.5625 -24.109375 C 59.695312 -24.109375 59.832031 -24.109375 59.96875 -24.109375 C 65.414062 -24.367188 70.265625 -26.023438 74.515625 -29.078125 C 78.765625 -32.140625 82.148438 -36.191406 84.671875 -41.234375 C 87.191406 -46.285156 88.390625 -51.867188 88.265625 -57.984375 C 88.265625 -64.359375 86.96875 -70.066406 84.375 -75.109375 C 81.78125 -80.160156 78.328125 -84.175781 74.015625 -87.15625 C 69.703125 -90.144531 64.820312 -91.640625 59.375 -91.640625 L 58.578125 -91.640625 C 53.265625 -91.515625 48.484375 -89.890625 44.234375 -86.765625 C 39.984375 -83.640625 36.660156 -79.453125 34.265625 -74.203125 C 31.878906 -68.960938 30.75 -63.085938 30.875 -56.578125 C 31.007812 -50.472656 32.304688 -44.960938 34.765625 -40.046875 C 37.222656 -35.128906 40.578125 -31.242188 44.828125 -28.390625 C 49.078125 -25.535156 53.789062 -24.109375 58.96875 -24.109375 Z M 58.96875 -24.109375 " />
                </g>
            </g>
        </g>
        <g fill="#845158" fill-opacity="1">
            <g transform="translate(358.783203, 350.638756)">
                <g>
                    <path
                        d="M 97.421875 -4.984375 C 96.359375 -3.648438 94.695312 -2.921875 92.4375 -2.796875 C 90.3125 -2.796875 88.253906 -3.222656 86.265625 -4.078125 C 84.273438 -4.941406 82.316406 -5.804688 80.390625 -6.671875 C 78.460938 -7.535156 76.367188 -7.96875 74.109375 -7.96875 C 72.648438 -7.96875 71.191406 -7.867188 69.734375 -7.671875 C 68.273438 -7.472656 66.945312 -7.238281 65.75 -6.96875 L 64.75 -6.78125 C 60.894531 -6.113281 57.140625 -5.25 53.484375 -4.1875 C 49.835938 -3.125 46.421875 -2.0625 43.234375 -1 C 41.773438 -0.601562 40.28125 -0.269531 38.75 0 C 37.21875 0.269531 35.65625 0.40625 34.0625 0.40625 C 24.375 0.40625 16.207031 -3.445312 9.5625 -11.15625 C 1.988281 -19.789062 -1 -30.414062 0.59375 -43.03125 C 1.257812 -48.082031 3.019531 -52.597656 5.875 -56.578125 C 8.726562 -60.566406 12.347656 -63.625 16.734375 -65.75 C 18.992188 -66.8125 21.382812 -67.570312 23.90625 -68.03125 C 26.425781 -68.5 29.015625 -68.929688 31.671875 -69.328125 C 32.335938 -69.328125 32.9375 -69.359375 33.46875 -69.421875 C 34 -69.492188 34.53125 -69.597656 35.0625 -69.734375 L 61.171875 -73.3125 C 64.617188 -73.84375 66.773438 -74.875 67.640625 -76.40625 C 68.503906 -77.9375 69.003906 -79.164062 69.140625 -80.09375 C 69.398438 -82.351562 68.695312 -84.410156 67.03125 -86.265625 C 65.375 -88.128906 63.421875 -89.390625 61.171875 -90.046875 C 57.046875 -91.640625 52.789062 -92.4375 48.40625 -92.4375 L 47.8125 -92.4375 C 43.695312 -92.3125 39.78125 -91.71875 36.0625 -90.65625 C 32.34375 -89.59375 28.753906 -88.328125 25.296875 -86.859375 C 24.234375 -86.328125 22.972656 -86.0625 21.515625 -86.0625 C 18.597656 -86.0625 15.707031 -87.023438 12.84375 -88.953125 C 9.988281 -90.878906 7.96875 -93.171875 6.78125 -95.828125 C 6.25 -96.890625 6.015625 -97.785156 6.078125 -98.515625 C 6.140625 -99.253906 6.238281 -99.820312 6.375 -100.21875 C 7.175781 -101.945312 8.738281 -103.503906 11.0625 -104.890625 C 13.382812 -106.285156 15.835938 -107.484375 18.421875 -108.484375 C 21.015625 -109.484375 23.175781 -110.25 24.90625 -110.78125 C 34.46875 -113.832031 44.097656 -115.359375 53.796875 -115.359375 C 54.722656 -115.359375 55.648438 -115.359375 56.578125 -115.359375 C 57.515625 -115.359375 58.445312 -115.289062 59.375 -115.15625 C 64.019531 -114.894531 69.164062 -114 74.8125 -112.46875 C 80.457031 -110.9375 85.269531 -108.046875 89.25 -103.796875 C 93.90625 -98.753906 96.695312 -93.707031 97.625 -88.65625 C 98.6875 -82.945312 99.050781 -77.003906 98.71875 -70.828125 C 98.382812 -64.648438 98.285156 -58.640625 98.421875 -52.796875 C 98.421875 -46.816406 98.421875 -40.804688 98.421875 -34.765625 C 98.421875 -28.722656 98.488281 -22.78125 98.625 -16.9375 C 98.625 -14.945312 98.722656 -12.820312 98.921875 -10.5625 C 99.117188 -8.300781 98.617188 -6.441406 97.421875 -4.984375 Z M 68.53125 -39.25 C 69.59375 -41.375 69.925781 -43.164062 69.53125 -44.625 C 69.132812 -46.082031 68.738281 -47.078125 68.34375 -47.609375 C 67.8125 -48.410156 66.976562 -49.175781 65.84375 -49.90625 C 64.71875 -50.632812 63.160156 -51.066406 61.171875 -51.203125 L 59.578125 -51.40625 C 58.378906 -51.539062 57.148438 -51.609375 55.890625 -51.609375 C 54.628906 -51.609375 53.265625 -51.609375 51.796875 -51.609375 C 49.535156 -51.609375 46.8125 -51.375 43.625 -50.90625 C 40.4375 -50.4375 37.382812 -49.207031 34.46875 -47.21875 C 32.476562 -45.625 31.21875 -43.960938 30.6875 -42.234375 C 30.15625 -40.773438 30.085938 -38.914062 30.484375 -36.65625 C 31.410156 -32.539062 33.203125 -29.351562 35.859375 -27.09375 C 38.515625 -24.832031 41.703125 -23.703125 45.421875 -23.703125 C 50.078125 -23.703125 54.660156 -25.226562 59.171875 -28.28125 C 63.691406 -31.34375 66.8125 -35 68.53125 -39.25 Z M 68.53125 -39.25 " />
                </g>
            </g>
        </g>
        <g fill="#845158" fill-opacity="1">
            <g transform="translate(463.778955, 350.638756)">
                <g>
                    <path
                        d="M 68.53125 -5.1875 C 61.226562 -1.726562 53.859375 0 46.421875 0 C 42.171875 0 37.488281 -0.597656 32.375 -1.796875 C 27.257812 -2.992188 22.273438 -4.519531 17.421875 -6.375 C 12.578125 -8.238281 8.296875 -10.234375 4.578125 -12.359375 C 1.796875 -13.953125 0.335938 -15.578125 0.203125 -17.234375 C 0.0664062 -18.890625 0.660156 -20.613281 1.984375 -22.40625 C 3.316406 -24.207031 4.582031 -26.171875 5.78125 -28.296875 C 6.175781 -28.953125 6.601562 -29.578125 7.0625 -30.171875 C 7.53125 -30.773438 8.03125 -31.273438 8.5625 -31.671875 C 10.03125 -32.734375 11.5625 -33.066406 13.15625 -32.671875 C 14.75 -32.273438 16.304688 -31.609375 17.828125 -30.671875 C 19.359375 -29.742188 20.722656 -28.953125 21.921875 -28.296875 C 26.035156 -26.035156 30.546875 -24.375 35.453125 -23.3125 C 40.367188 -22.25 45.15625 -21.847656 49.8125 -22.109375 C 53.257812 -22.378906 56.441406 -23.144531 59.359375 -24.40625 C 62.285156 -25.664062 64.015625 -27.425781 64.546875 -29.6875 C 65.078125 -31.945312 63.484375 -34.601562 59.765625 -37.65625 C 54.859375 -41.507812 49.644531 -44.695312 44.125 -47.21875 C 38.613281 -49.738281 32.9375 -51.929688 27.09375 -53.796875 C 21.644531 -55.523438 17.257812 -58.113281 13.9375 -61.5625 C 10.625 -65.019531 8.269531 -68.875 6.875 -73.125 C 5.476562 -77.375 5.046875 -81.488281 5.578125 -85.46875 C 6.242188 -89.71875 7.90625 -93.769531 10.5625 -97.625 C 13.21875 -101.476562 16.535156 -104.863281 20.515625 -107.78125 C 24.503906 -110.707031 28.820312 -112.703125 33.46875 -113.765625 C 36.125 -114.429688 38.710938 -114.925781 41.234375 -115.25 C 43.765625 -115.582031 46.289062 -115.75 48.8125 -115.75 C 53.59375 -115.75 58.304688 -115.1875 62.953125 -114.0625 C 67.609375 -112.9375 72.0625 -111.375 76.3125 -109.375 C 80.15625 -107.65625 82.90625 -106.03125 84.5625 -104.5 C 86.226562 -102.96875 86.828125 -101.140625 86.359375 -99.015625 C 85.898438 -96.890625 84.34375 -93.898438 81.6875 -90.046875 C 79.695312 -87.128906 77.4375 -85.503906 74.90625 -85.171875 C 72.382812 -84.835938 69.660156 -85.203125 66.734375 -86.265625 C 63.816406 -87.328125 60.863281 -88.617188 57.875 -90.140625 C 54.882812 -91.671875 51.960938 -92.96875 49.109375 -94.03125 C 46.253906 -95.09375 43.628906 -95.425781 41.234375 -95.03125 C 38.847656 -94.632812 36.722656 -92.972656 34.859375 -90.046875 C 33.140625 -87.128906 32.644531 -84.570312 33.375 -82.375 C 34.101562 -80.1875 35.59375 -78.296875 37.84375 -76.703125 C 40.101562 -75.109375 42.726562 -73.78125 45.71875 -72.71875 C 48.707031 -71.65625 51.597656 -70.722656 54.390625 -69.921875 C 57.179688 -69.128906 59.441406 -68.398438 61.171875 -67.734375 C 66.210938 -65.878906 71.125 -63.625 75.90625 -60.96875 C 80.6875 -58.3125 84.539062 -54.59375 87.46875 -49.8125 C 91.445312 -43.164062 92.867188 -36.953125 91.734375 -31.171875 C 90.609375 -25.398438 87.921875 -20.289062 83.671875 -15.84375 C 79.421875 -11.394531 74.375 -7.84375 68.53125 -5.1875 Z M 68.53125 -5.1875 " />
                </g>
            </g>
        </g>
        <g fill="#845158" fill-opacity="1">
            <g transform="translate(561.80155, 350.638756)">
                <g>
                    <path
                        d="M 68.53125 -5.1875 C 61.226562 -1.726562 53.859375 0 46.421875 0 C 42.171875 0 37.488281 -0.597656 32.375 -1.796875 C 27.257812 -2.992188 22.273438 -4.519531 17.421875 -6.375 C 12.578125 -8.238281 8.296875 -10.234375 4.578125 -12.359375 C 1.796875 -13.953125 0.335938 -15.578125 0.203125 -17.234375 C 0.0664062 -18.890625 0.660156 -20.613281 1.984375 -22.40625 C 3.316406 -24.207031 4.582031 -26.171875 5.78125 -28.296875 C 6.175781 -28.953125 6.601562 -29.578125 7.0625 -30.171875 C 7.53125 -30.773438 8.03125 -31.273438 8.5625 -31.671875 C 10.03125 -32.734375 11.5625 -33.066406 13.15625 -32.671875 C 14.75 -32.273438 16.304688 -31.609375 17.828125 -30.671875 C 19.359375 -29.742188 20.722656 -28.953125 21.921875 -28.296875 C 26.035156 -26.035156 30.546875 -24.375 35.453125 -23.3125 C 40.367188 -22.25 45.15625 -21.847656 49.8125 -22.109375 C 53.257812 -22.378906 56.441406 -23.144531 59.359375 -24.40625 C 62.285156 -25.664062 64.015625 -27.425781 64.546875 -29.6875 C 65.078125 -31.945312 63.484375 -34.601562 59.765625 -37.65625 C 54.859375 -41.507812 49.644531 -44.695312 44.125 -47.21875 C 38.613281 -49.738281 32.9375 -51.929688 27.09375 -53.796875 C 21.644531 -55.523438 17.257812 -58.113281 13.9375 -61.5625 C 10.625 -65.019531 8.269531 -68.875 6.875 -73.125 C 5.476562 -77.375 5.046875 -81.488281 5.578125 -85.46875 C 6.242188 -89.71875 7.90625 -93.769531 10.5625 -97.625 C 13.21875 -101.476562 16.535156 -104.863281 20.515625 -107.78125 C 24.503906 -110.707031 28.820312 -112.703125 33.46875 -113.765625 C 36.125 -114.429688 38.710938 -114.925781 41.234375 -115.25 C 43.765625 -115.582031 46.289062 -115.75 48.8125 -115.75 C 53.59375 -115.75 58.304688 -115.1875 62.953125 -114.0625 C 67.609375 -112.9375 72.0625 -111.375 76.3125 -109.375 C 80.15625 -107.65625 82.90625 -106.03125 84.5625 -104.5 C 86.226562 -102.96875 86.828125 -101.140625 86.359375 -99.015625 C 85.898438 -96.890625 84.34375 -93.898438 81.6875 -90.046875 C 79.695312 -87.128906 77.4375 -85.503906 74.90625 -85.171875 C 72.382812 -84.835938 69.660156 -85.203125 66.734375 -86.265625 C 63.816406 -87.328125 60.863281 -88.617188 57.875 -90.140625 C 54.882812 -91.671875 51.960938 -92.96875 49.109375 -94.03125 C 46.253906 -95.09375 43.628906 -95.425781 41.234375 -95.03125 C 38.847656 -94.632812 36.722656 -92.972656 34.859375 -90.046875 C 33.140625 -87.128906 32.644531 -84.570312 33.375 -82.375 C 34.101562 -80.1875 35.59375 -78.296875 37.84375 -76.703125 C 40.101562 -75.109375 42.726562 -73.78125 45.71875 -72.71875 C 48.707031 -71.65625 51.597656 -70.722656 54.390625 -69.921875 C 57.179688 -69.128906 59.441406 -68.398438 61.171875 -67.734375 C 66.210938 -65.878906 71.125 -63.625 75.90625 -60.96875 C 80.6875 -58.3125 84.539062 -54.59375 87.46875 -49.8125 C 91.445312 -43.164062 92.867188 -36.953125 91.734375 -31.171875 C 90.609375 -25.398438 87.921875 -20.289062 83.671875 -15.84375 C 79.421875 -11.394531 74.375 -7.84375 68.53125 -5.1875 Z M 68.53125 -5.1875 " />
                </g>
            </g>
        </g>
        <g clip-path="url(#5b9d3419ca)">
            <g clip-path="url(#290f42eec2)">
                <g clip-path="url(#7cd7f98858)">
                    <path fill="#e0afa1"
                        d="M 593.484375 211.558594 L 593.484375 218.882812 L 650.878906 218.882812 L 650.878906 185.632812 C 638.578125 185.53125 628.679688 175.570312 628.714844 163.265625 C 628.714844 150.996094 638.578125 141 650.878906 140.902344 L 650.878906 107.125 L 593.484375 107.125 L 593.484375 114.710938 C 593.484375 115.765625 592.660156 116.589844 591.636719 116.558594 C 590.582031 116.558594 589.757812 115.734375 589.789062 114.710938 L 589.789062 107.125 L 445.96875 107.125 L 445.96875 140.96875 C 445.96875 140.96875 446.101562 140.96875 446.167969 140.96875 C 458.503906 140.96875 468.53125 150.996094 468.53125 163.332031 C 468.53125 175.671875 458.503906 185.699219 446.167969 185.699219 C 446.101562 185.699219 445.96875 185.699219 445.96875 185.699219 L 445.96875 218.949219 L 589.789062 218.949219 L 589.789062 211.625 C 589.789062 210.570312 590.613281 209.746094 591.636719 209.777344 C 592.660156 209.679688 593.515625 210.535156 593.484375 211.558594 Z M 591.636719 131.46875 C 590.582031 131.46875 589.757812 130.644531 589.789062 129.621094 L 589.789062 122.167969 C 589.789062 121.109375 590.613281 120.285156 591.636719 120.320312 C 592.691406 120.320312 593.515625 121.144531 593.484375 122.167969 L 593.484375 129.621094 C 593.484375 130.609375 592.660156 131.433594 591.636719 131.46875 Z M 591.636719 146.378906 C 590.582031 146.378906 589.757812 145.554688 589.789062 144.53125 L 589.757812 137.042969 C 589.757812 135.988281 590.582031 135.164062 591.605469 135.195312 C 592.660156 135.195312 593.484375 136.019531 593.449219 137.042969 L 593.449219 144.5 C 593.484375 145.519531 592.660156 146.34375 591.636719 146.378906 Z M 591.636719 161.289062 C 590.582031 161.289062 589.757812 160.464844 589.789062 159.441406 L 589.789062 151.984375 C 589.789062 150.929688 590.613281 150.105469 591.636719 150.140625 C 592.691406 150.140625 593.515625 150.964844 593.484375 151.984375 L 593.484375 159.441406 C 593.484375 160.429688 592.660156 161.253906 591.636719 161.289062 Z M 591.667969 176.164062 C 590.613281 176.164062 589.789062 175.339844 589.824219 174.316406 L 589.824219 166.863281 C 589.824219 165.808594 590.648438 164.984375 591.667969 165.015625 C 592.691406 165.046875 593.550781 165.839844 593.515625 166.863281 L 593.515625 174.316406 C 593.484375 175.339844 592.660156 176.164062 591.667969 176.164062 Z M 591.636719 191.042969 C 590.582031 191.042969 589.757812 190.21875 589.789062 189.195312 L 589.789062 181.738281 C 589.789062 180.683594 590.613281 179.859375 591.636719 179.890625 C 592.691406 179.890625 593.515625 180.71875 593.484375 181.738281 L 593.484375 189.195312 C 593.515625 190.21875 592.660156 191.074219 591.636719 191.042969 Z M 591.636719 205.953125 C 590.582031 205.953125 589.757812 205.128906 589.789062 204.105469 L 589.789062 196.648438 C 589.789062 195.59375 590.613281 194.769531 591.636719 194.800781 C 592.691406 194.800781 593.515625 195.625 593.484375 196.648438 L 593.484375 204.105469 C 593.515625 205.128906 592.660156 205.984375 591.636719 205.953125 Z M 591.636719 205.953125 "
                        fill-opacity="1" fill-rule="nonzero" />
                </g>
            </g>
        </g>
    </g>
</svg>