<svg xmlns="http://www.w3.org/2000/svg" width="210" height="210" viewBox="50 50 220 220"
    preserveAspectRatio="xMidYMid meet" version="1.0" style="background: transparent;">
    <style>
        path {
            fill: #374375;
        }

        @media (prefers-color-scheme: dark) {
            path {
                fill: #f8eeed;
            }
        }
    </style>
    <path fill="#374375"
        d="M 206.703125 210.292969 L 206.703125 217.734375 L 265.019531 217.734375 L 265.019531 183.949219 C 252.519531 183.851562 242.464844 173.730469 242.496094 161.226562 C 242.496094 148.761719 252.519531 138.605469 265.019531 138.503906 L 265.019531 104.1875 L 206.703125 104.1875 L 206.703125 111.894531 C 206.703125 112.964844 205.867188 113.804688 204.828125 113.769531 C 203.753906 113.769531 202.917969 112.933594 202.949219 111.894531 L 202.949219 104.1875 L 56.824219 104.1875 L 56.824219 138.570312 C 56.824219 138.570312 56.960938 138.570312 57.027344 138.570312 C 69.5625 138.570312 79.75 148.761719 79.75 161.292969 C 79.75 173.828125 69.5625 184.019531 57.027344 184.019531 C 56.960938 184.019531 56.824219 184.019531 56.824219 184.019531 L 56.824219 217.800781 L 202.949219 217.800781 L 202.949219 210.359375 C 202.949219 209.289062 203.789062 208.449219 204.828125 208.484375 C 205.867188 208.382812 206.738281 209.253906 206.703125 210.292969 Z M 204.828125 128.917969 C 203.753906 128.917969 202.917969 128.082031 202.949219 127.042969 L 202.949219 119.46875 C 202.949219 118.394531 203.789062 117.558594 204.828125 117.589844 C 205.898438 117.589844 206.738281 118.429688 206.703125 119.46875 L 206.703125 127.042969 C 206.703125 128.046875 205.867188 128.886719 204.828125 128.917969 Z M 204.828125 144.066406 C 203.753906 144.066406 202.917969 143.230469 202.949219 142.191406 L 202.917969 134.582031 C 202.917969 133.511719 203.753906 132.671875 204.792969 132.707031 C 205.867188 132.707031 206.703125 133.542969 206.667969 134.582031 L 206.667969 142.15625 C 206.703125 143.195312 205.867188 144.035156 204.828125 144.066406 Z M 204.828125 159.21875 C 203.753906 159.21875 202.917969 158.378906 202.949219 157.339844 L 202.949219 149.765625 C 202.949219 148.691406 203.789062 147.855469 204.828125 147.890625 C 205.898438 147.890625 206.738281 148.726562 206.703125 149.765625 L 206.703125 157.339844 C 206.703125 158.34375 205.867188 159.183594 204.828125 159.21875 Z M 204.859375 174.332031 C 203.789062 174.332031 202.949219 173.496094 202.984375 172.457031 L 202.984375 164.882812 C 202.984375 163.808594 203.820312 162.96875 204.859375 163.003906 C 205.898438 163.039062 206.769531 163.84375 206.738281 164.882812 L 206.738281 172.457031 C 206.703125 173.496094 205.867188 174.332031 204.859375 174.332031 Z M 204.828125 189.445312 C 203.753906 189.445312 202.917969 188.609375 202.949219 187.570312 L 202.949219 179.996094 C 202.949219 178.921875 203.789062 178.085938 204.828125 178.121094 C 205.898438 178.121094 206.738281 178.957031 206.703125 179.996094 L 206.703125 187.570312 C 206.738281 188.609375 205.867188 189.480469 204.828125 189.445312 Z M 204.828125 204.597656 C 203.753906 204.597656 202.917969 203.757812 202.949219 202.71875 L 202.949219 195.144531 C 202.949219 194.070312 203.789062 193.234375 204.828125 193.269531 C 205.898438 193.269531 206.738281 194.105469 206.703125 195.144531 L 206.703125 202.71875 C 206.738281 203.757812 205.867188 204.628906 204.828125 204.597656 Z M 204.828125 204.597656 "
        fill-opacity="1" fill-rule="nonzero" />
</svg>