<svg xmlns="http://www.w3.org/2000/svg" xmlns:xlink="http://www.w3.org/1999/xlink" width="1549" zoomAndPan="magnify"
    viewBox="0 0 1161.75 326.999992" height="436" preserveAspectRatio="xMidYMid meet" version="1.0">
    <defs>
        <g />
        <clipPath id="4c6ae14ddc">
            <path d="M 56 104 L 266 104 L 266 218 L 56 218 Z M 56 104 " clip-rule="nonzero" />
        </clipPath>
        <clipPath id="b1d84392a8">
            <path
                d="M 160.90625 0.0742188 L 321.5625 160.726562 L 160.90625 321.382812 L 0.25 160.726562 Z M 160.90625 0.0742188 "
                clip-rule="nonzero" />
        </clipPath>
        <clipPath id="1d3a18a5d2">
            <path
                d="M 160.90625 0.0742188 L 321.5625 160.726562 L 160.90625 321.382812 L 0.25 160.726562 Z M 160.90625 0.0742188 "
                clip-rule="nonzero" />
        </clipPath>
    </defs>
    <g fill="#845158" fill-opacity="1">
        <g transform="translate(293.564275, 220.278728)">
            <g>
                <path
                    d="M 127.484375 -90.375 C 121.503906 -89.582031 116.984375 -87.722656 113.921875 -84.796875 C 110.859375 -81.867188 108.757812 -78.242188 107.625 -73.921875 C 106.5 -69.597656 105.9375 -65.039062 105.9375 -60.25 C 105.9375 -55.46875 106.003906 -50.75 106.140625 -46.09375 C 106.140625 -45.15625 106.238281 -43.054688 106.4375 -39.796875 C 106.632812 -36.546875 106.800781 -32.820312 106.9375 -28.625 C 107.070312 -24.4375 107.039062 -20.3125 106.84375 -16.25 C 106.644531 -12.195312 106.175781 -8.804688 105.4375 -6.078125 C 104.707031 -3.359375 103.613281 -1.863281 102.15625 -1.59375 C 99.757812 -1.332031 97.0625 -0.96875 94.0625 -0.5 C 91.070312 -0.03125 88.179688 0.101562 85.390625 -0.09375 C 82.597656 -0.300781 80.269531 -1.132812 78.40625 -2.59375 C 76.539062 -4.050781 75.609375 -6.507812 75.609375 -9.96875 C 75.484375 -19.8125 75.421875 -29.6875 75.421875 -39.59375 C 75.421875 -49.507812 75.019531 -59.320312 74.21875 -69.03125 C 73.820312 -74.488281 72.328125 -79.3125 69.734375 -83.5 C 67.140625 -87.6875 62.71875 -90.046875 56.46875 -90.578125 C 56.0625 -90.710938 55.523438 -90.78125 54.859375 -90.78125 C 49.273438 -90.78125 44.785156 -89.445312 41.390625 -86.78125 C 38.003906 -84.125 35.476562 -80.664062 33.8125 -76.40625 C 32.15625 -72.15625 31.0625 -67.664062 30.53125 -62.9375 C 30 -58.21875 29.796875 -53.734375 29.921875 -49.484375 C 30.054688 -43.628906 30.15625 -37.738281 30.21875 -31.8125 C 30.289062 -25.894531 30.328125 -20.015625 30.328125 -14.171875 C 30.460938 -9.515625 29.992188 -6.285156 28.921875 -4.484375 C 27.859375 -2.691406 26.0625 -1.628906 23.53125 -1.296875 C 21.007812 -0.960938 17.554688 -0.597656 13.171875 -0.203125 C 8.117188 0.203125 4.726562 -0.921875 3 -3.578125 C 1.269531 -6.242188 0.40625 -9.90625 0.40625 -14.5625 C 0.40625 -24.007812 0.40625 -33.519531 0.40625 -43.09375 C 0.40625 -52.664062 0.40625 -62.242188 0.40625 -71.828125 C 0.40625 -76.617188 0.40625 -81.375 0.40625 -86.09375 C 0.40625 -90.8125 0.40625 -95.566406 0.40625 -100.359375 C 0.40625 -102.222656 0.300781 -104.484375 0.09375 -107.140625 C -0.101562 -109.796875 0.460938 -111.789062 1.796875 -113.125 C 2.328125 -113.789062 3.59375 -114.125 5.59375 -114.125 C 5.988281 -114.125 6.453125 -114.125 6.984375 -114.125 C 7.515625 -114.125 8.046875 -114.054688 8.578125 -113.921875 C 10.441406 -113.660156 12.238281 -113.363281 13.96875 -113.03125 C 15.695312 -112.695312 17.425781 -112.394531 19.15625 -112.125 C 21.945312 -111.59375 24.769531 -111.09375 27.625 -110.625 C 30.488281 -110.164062 33.382812 -109.734375 36.3125 -109.328125 C 36.570312 -109.328125 36.800781 -109.328125 37 -109.328125 C 37.207031 -109.328125 37.378906 -109.328125 37.515625 -109.328125 C 38.835938 -109.328125 40.03125 -109.523438 41.09375 -109.921875 C 42.164062 -110.328125 43.164062 -110.664062 44.09375 -110.9375 C 44.351562 -111.195312 44.648438 -111.359375 44.984375 -111.421875 C 45.316406 -111.492188 45.550781 -111.597656 45.6875 -111.734375 C 49.414062 -112.929688 52.804688 -113.859375 55.859375 -114.515625 C 58.921875 -115.179688 61.78125 -115.515625 64.4375 -115.515625 C 72.550781 -115.515625 79.46875 -112.390625 85.1875 -106.140625 C 88.914062 -102.421875 92.773438 -100.5625 96.765625 -100.5625 C 99.160156 -100.5625 101.320312 -101.09375 103.25 -102.15625 C 105.175781 -103.21875 106.9375 -104.347656 108.53125 -105.546875 C 108.9375 -105.804688 109.300781 -106.066406 109.625 -106.328125 C 109.957031 -106.597656 110.257812 -106.800781 110.53125 -106.9375 C 119.175781 -112.789062 128.351562 -115.71875 138.0625 -115.71875 C 144.71875 -115.71875 151.035156 -114.320312 157.015625 -111.53125 C 163.003906 -108.738281 168.191406 -104.613281 172.578125 -99.15625 C 175.503906 -95.5625 177.597656 -91.46875 178.859375 -86.875 C 180.128906 -82.289062 180.929688 -77.4375 181.265625 -72.3125 C 181.597656 -67.195312 181.726562 -62.113281 181.65625 -57.0625 C 181.59375 -52.007812 181.757812 -47.285156 182.15625 -42.890625 C 182.6875 -37.035156 183.21875 -30.984375 183.75 -24.734375 C 184.28125 -18.484375 183.414062 -12.5 181.15625 -6.78125 C 180.226562 -4.519531 178.832031 -3.054688 176.96875 -2.390625 C 175.101562 -1.722656 173.039062 -1.488281 170.78125 -1.6875 C 168.519531 -1.894531 166.191406 -1.929688 163.796875 -1.796875 C 160.472656 -1.796875 158.046875 -1.960938 156.515625 -2.296875 C 154.984375 -2.628906 153.984375 -3.554688 153.515625 -5.078125 C 153.054688 -6.609375 152.695312 -9.101562 152.4375 -12.5625 C 151.894531 -22.40625 151.691406 -32.316406 151.828125 -42.296875 C 151.960938 -52.273438 151.5 -62.050781 150.4375 -71.625 C 149.769531 -77.613281 147.738281 -82.300781 144.34375 -85.6875 C 140.957031 -89.082031 136.601562 -90.78125 131.28125 -90.78125 C 130.75 -90.78125 130.148438 -90.742188 129.484375 -90.671875 C 128.816406 -90.609375 128.148438 -90.507812 127.484375 -90.375 Z M 127.484375 -90.375 " />
            </g>
        </g>
    </g>
    <g fill="#845158" fill-opacity="1">
        <g transform="translate(483.503831, 220.278728)">
            <g>
                <path
                    d="M 7.578125 -125.6875 C 4.648438 -127.550781 2.519531 -130.175781 1.1875 -133.5625 C -0.132812 -136.957031 -0.195312 -140.65625 1 -144.65625 C 3.257812 -152.5 8.578125 -156.550781 16.953125 -156.8125 L 17.359375 -156.8125 C 21.484375 -156.8125 24.941406 -155.710938 27.734375 -153.515625 C 30.523438 -151.328125 32.382812 -148.304688 33.3125 -144.453125 C 34.507812 -139.660156 34.046875 -135.269531 31.921875 -131.28125 C 29.796875 -127.289062 26.207031 -124.695312 21.15625 -123.5 C 18.625 -122.96875 16.191406 -122.898438 13.859375 -123.296875 C 11.535156 -123.703125 9.441406 -124.5 7.578125 -125.6875 Z M 4.78125 -105.75 C 6.644531 -106.9375 9.304688 -107.46875 12.765625 -107.34375 C 14.765625 -107.34375 16.957031 -107.40625 19.34375 -107.53125 C 21.738281 -107.664062 23.96875 -107.429688 26.03125 -106.828125 C 28.09375 -106.234375 29.457031 -104.875 30.125 -102.75 C 31.320312 -99.425781 31.71875 -95.398438 31.3125 -90.671875 C 30.914062 -85.953125 30.71875 -81.863281 30.71875 -78.40625 C 30.851562 -70.289062 30.921875 -62.242188 30.921875 -54.265625 C 30.921875 -46.285156 30.988281 -38.238281 31.125 -30.125 C 31.125 -28.789062 31.289062 -26.5625 31.625 -23.4375 C 31.957031 -20.3125 32.15625 -16.953125 32.21875 -13.359375 C 32.289062 -9.773438 31.925781 -6.71875 31.125 -4.1875 C 30.320312 -1.664062 28.726562 -0.335938 26.34375 -0.203125 C 23.28125 -0.0664062 20.082031 0.03125 16.75 0.09375 C 13.425781 0.164062 10.238281 0 7.1875 -0.40625 C 5.050781 -0.664062 3.582031 -1.828125 2.78125 -3.890625 C 1.988281 -5.953125 1.554688 -8.445312 1.484375 -11.375 C 1.421875 -14.300781 1.519531 -17.09375 1.78125 -19.75 C 2.050781 -22.414062 2.1875 -24.476562 2.1875 -25.9375 C 2.0625 -31.382812 1.960938 -36.867188 1.890625 -42.390625 C 1.828125 -47.910156 1.796875 -53.398438 1.796875 -58.859375 C 1.660156 -63.515625 1.59375 -68.171875 1.59375 -72.828125 C 1.59375 -77.484375 1.523438 -82.070312 1.390625 -86.59375 C 1.390625 -90.445312 1.320312 -94.171875 1.1875 -97.765625 C 1.0625 -101.359375 2.257812 -104.019531 4.78125 -105.75 Z M 4.78125 -105.75 " />
            </g>
        </g>
    </g>
    <g fill="#845158" fill-opacity="1">
        <g transform="translate(523.606329, 220.278728)">
            <g>
                <path
                    d="M 101.953125 -1 C 98.492188 -1.132812 95 -1.164062 91.46875 -1.09375 C 87.945312 -1.03125 84.390625 -1 80.796875 -1 C 80.003906 -1 79.375 -2.394531 78.90625 -5.1875 C 78.4375 -7.976562 78.132812 -11.632812 78 -16.15625 C 77.875 -20.675781 77.8125 -25.5625 77.8125 -30.8125 C 77.8125 -36.070312 77.875 -41.160156 78 -46.078125 C 78.132812 -51.003906 78.234375 -55.265625 78.296875 -58.859375 C 78.367188 -62.453125 78.40625 -64.78125 78.40625 -65.84375 C 78.269531 -73.289062 77.101562 -78.941406 74.90625 -82.796875 C 72.71875 -86.648438 69.992188 -89.304688 66.734375 -90.765625 C 63.472656 -92.234375 60.25 -92.96875 57.0625 -92.96875 L 56.65625 -92.96875 C 49.082031 -92.96875 42.929688 -90.40625 38.203125 -85.28125 C 33.484375 -80.164062 30.988281 -73.484375 30.71875 -65.234375 C 30.59375 -59.921875 30.53125 -54.601562 30.53125 -49.28125 C 30.53125 -43.957031 30.53125 -38.632812 30.53125 -33.3125 C 30.65625 -29.195312 31.015625 -24.644531 31.609375 -19.65625 C 32.210938 -14.664062 32.117188 -10.109375 31.328125 -5.984375 C 30.796875 -2.921875 29.5625 -1.289062 27.625 -1.09375 C 25.695312 -0.894531 23.539062 -0.726562 21.15625 -0.59375 C 19.550781 -0.46875 17.453125 -0.300781 14.859375 -0.09375 C 12.265625 0.101562 9.738281 0.00390625 7.28125 -0.390625 C 4.820312 -0.796875 2.992188 -1.796875 1.796875 -3.390625 C 0.328125 -5.515625 -0.207031 -8.070312 0.1875 -11.0625 C 0.59375 -14.0625 0.863281 -16.691406 1 -18.953125 C 1.53125 -26.265625 1.925781 -33.710938 2.1875 -41.296875 C 2.59375 -55.660156 2.195312 -69.960938 1 -84.203125 C 0.726562 -86.992188 0.523438 -90.25 0.390625 -93.96875 C 0.265625 -97.695312 0.566406 -101.253906 1.296875 -104.640625 C 2.023438 -108.035156 3.488281 -110.695312 5.6875 -112.625 C 7.882812 -114.550781 11.175781 -115.117188 15.5625 -114.328125 C 19.15625 -113.660156 22.679688 -112.828125 26.140625 -111.828125 C 29.597656 -110.828125 33.117188 -109.992188 36.703125 -109.328125 C 36.972656 -109.328125 37.273438 -109.328125 37.609375 -109.328125 C 37.941406 -109.328125 38.175781 -109.328125 38.3125 -109.328125 C 40.832031 -109.328125 43.351562 -109.828125 45.875 -110.828125 C 48.40625 -111.828125 51 -112.859375 53.65625 -113.921875 C 56.320312 -114.984375 58.988281 -115.582031 61.65625 -115.71875 C 69.363281 -116.382812 76.675781 -115.054688 83.59375 -111.734375 C 89.582031 -108.929688 94.203125 -105.269531 97.453125 -100.75 C 100.710938 -96.226562 103.070312 -91.238281 104.53125 -85.78125 C 106 -80.332031 106.929688 -74.679688 107.328125 -68.828125 C 107.734375 -62.972656 108.070312 -57.1875 108.34375 -51.46875 C 108.34375 -50.269531 108.472656 -47.804688 108.734375 -44.078125 C 109.003906 -40.359375 109.171875 -36.070312 109.234375 -31.21875 C 109.296875 -26.363281 109.191406 -21.640625 108.921875 -17.046875 C 108.660156 -12.460938 108.03125 -8.640625 107.03125 -5.578125 C 106.039062 -2.523438 104.546875 -1 102.546875 -1 C 102.410156 -1 102.3125 -1 102.25 -1 C 102.1875 -1 102.085938 -1 101.953125 -1 Z M 101.953125 -1 " />
            </g>
        </g>
    </g>
    <g fill="#845158" fill-opacity="1">
        <g transform="translate(638.926647, 220.278728)">
            <g>
                <path
                    d="M 7.578125 -125.6875 C 4.648438 -127.550781 2.519531 -130.175781 1.1875 -133.5625 C -0.132812 -136.957031 -0.195312 -140.65625 1 -144.65625 C 3.257812 -152.5 8.578125 -156.550781 16.953125 -156.8125 L 17.359375 -156.8125 C 21.484375 -156.8125 24.941406 -155.710938 27.734375 -153.515625 C 30.523438 -151.328125 32.382812 -148.304688 33.3125 -144.453125 C 34.507812 -139.660156 34.046875 -135.269531 31.921875 -131.28125 C 29.796875 -127.289062 26.207031 -124.695312 21.15625 -123.5 C 18.625 -122.96875 16.191406 -122.898438 13.859375 -123.296875 C 11.535156 -123.703125 9.441406 -124.5 7.578125 -125.6875 Z M 4.78125 -105.75 C 6.644531 -106.9375 9.304688 -107.46875 12.765625 -107.34375 C 14.765625 -107.34375 16.957031 -107.40625 19.34375 -107.53125 C 21.738281 -107.664062 23.96875 -107.429688 26.03125 -106.828125 C 28.09375 -106.234375 29.457031 -104.875 30.125 -102.75 C 31.320312 -99.425781 31.71875 -95.398438 31.3125 -90.671875 C 30.914062 -85.953125 30.71875 -81.863281 30.71875 -78.40625 C 30.851562 -70.289062 30.921875 -62.242188 30.921875 -54.265625 C 30.921875 -46.285156 30.988281 -38.238281 31.125 -30.125 C 31.125 -28.789062 31.289062 -26.5625 31.625 -23.4375 C 31.957031 -20.3125 32.15625 -16.953125 32.21875 -13.359375 C 32.289062 -9.773438 31.925781 -6.71875 31.125 -4.1875 C 30.320312 -1.664062 28.726562 -0.335938 26.34375 -0.203125 C 23.28125 -0.0664062 20.082031 0.03125 16.75 0.09375 C 13.425781 0.164062 10.238281 0 7.1875 -0.40625 C 5.050781 -0.664062 3.582031 -1.828125 2.78125 -3.890625 C 1.988281 -5.953125 1.554688 -8.445312 1.484375 -11.375 C 1.421875 -14.300781 1.519531 -17.09375 1.78125 -19.75 C 2.050781 -22.414062 2.1875 -24.476562 2.1875 -25.9375 C 2.0625 -31.382812 1.960938 -36.867188 1.890625 -42.390625 C 1.828125 -47.910156 1.796875 -53.398438 1.796875 -58.859375 C 1.660156 -63.515625 1.59375 -68.171875 1.59375 -72.828125 C 1.59375 -77.484375 1.523438 -82.070312 1.390625 -86.59375 C 1.390625 -90.445312 1.320312 -94.171875 1.1875 -97.765625 C 1.0625 -101.359375 2.257812 -104.019531 4.78125 -105.75 Z M 4.78125 -105.75 " />
            </g>
        </g>
    </g>
    <g fill="#e0afa1" fill-opacity="1">
        <g transform="translate(679.039905, 220.278728)">
            <g>
                <path
                    d="M 98.953125 -12.765625 C 91.109375 -6.117188 81.796875 -2.226562 71.015625 -1.09375 C 60.242188 0.03125 49.539062 -2 38.90625 -7.1875 C 38.375 -7.582031 37.640625 -7.78125 36.703125 -7.78125 C 35.773438 -7.78125 34.847656 -7.515625 33.921875 -6.984375 C 32.328125 -6.054688 31.53125 -4.59375 31.53125 -2.59375 C 31.53125 -0.59375 31.53125 1.398438 31.53125 3.390625 C 31.53125 5.390625 31.53125 7.382812 31.53125 9.375 C 31.53125 10.707031 31.660156 12.867188 31.921875 15.859375 C 32.191406 18.847656 32.425781 22.070312 32.625 25.53125 C 32.820312 28.988281 32.785156 32.082031 32.515625 34.8125 C 32.253906 37.539062 31.523438 39.304688 30.328125 40.109375 C 29.796875 40.367188 29.195312 40.566406 28.53125 40.703125 C 27.863281 40.835938 27.195312 40.96875 26.53125 41.09375 C 23.070312 41.5 19.515625 41.929688 15.859375 42.390625 C 12.203125 42.859375 8.976562 42.523438 6.1875 41.390625 C 3.394531 40.265625 1.664062 37.507812 1 33.125 C 0.0625 25.269531 -0.140625 17.453125 0.390625 9.671875 C 0.929688 1.890625 1.203125 -5.851562 1.203125 -13.5625 C 1.203125 -28.59375 1.234375 -43.851562 1.296875 -59.34375 C 1.359375 -74.84375 1.257812 -90.242188 1 -105.546875 C 1 -108.335938 1.164062 -110.332031 1.5 -111.53125 C 1.832031 -112.726562 2.195312 -113.523438 2.59375 -113.921875 C 3.789062 -115.117188 5.75 -115.484375 8.46875 -115.015625 C 11.195312 -114.554688 13.992188 -113.894531 16.859375 -113.03125 C 19.722656 -112.164062 21.816406 -111.597656 23.140625 -111.328125 C 28.597656 -110.398438 33.71875 -110.332031 38.5 -111.125 C 43.289062 -111.925781 48.113281 -112.925781 52.96875 -114.125 C 57.820312 -115.320312 62.910156 -115.921875 68.234375 -115.921875 C 75.816406 -115.921875 82.664062 -114.359375 88.78125 -111.234375 C 94.90625 -108.109375 100.09375 -103.847656 104.34375 -98.453125 C 108.601562 -93.066406 111.960938 -87.046875 114.421875 -80.390625 C 116.878906 -73.742188 118.238281 -66.863281 118.5 -59.75 C 118.769531 -52.632812 117.910156 -45.753906 115.921875 -39.109375 C 114.191406 -33.515625 111.894531 -28.523438 109.03125 -24.140625 C 106.175781 -19.753906 102.816406 -15.960938 98.953125 -12.765625 Z M 59.0625 -24.140625 C 59.320312 -24.140625 59.519531 -24.140625 59.65625 -24.140625 C 59.789062 -24.140625 59.921875 -24.140625 60.046875 -24.140625 C 65.503906 -24.410156 70.359375 -26.070312 74.609375 -29.125 C 78.867188 -32.1875 82.257812 -36.242188 84.78125 -41.296875 C 87.3125 -46.347656 88.515625 -51.9375 88.390625 -58.0625 C 88.390625 -64.445312 87.09375 -70.164062 84.5 -75.21875 C 81.90625 -80.269531 78.445312 -84.289062 74.125 -87.28125 C 69.800781 -90.28125 64.910156 -91.78125 59.453125 -91.78125 L 58.65625 -91.78125 C 53.332031 -91.644531 48.539062 -90.015625 44.28125 -86.890625 C 40.03125 -83.765625 36.707031 -79.570312 34.3125 -74.3125 C 31.914062 -69.0625 30.785156 -63.175781 30.921875 -56.65625 C 31.054688 -50.539062 32.351562 -45.019531 34.8125 -40.09375 C 37.269531 -35.175781 40.628906 -31.285156 44.890625 -28.421875 C 49.148438 -25.566406 53.875 -24.140625 59.0625 -24.140625 Z M 59.0625 -24.140625 " />
            </g>
        </g>
    </g>
    <g fill="#e0afa1" fill-opacity="1">
        <g transform="translate(803.538, 220.278728)">
            <g>
                <path
                    d="M 97.5625 -4.984375 C 96.5 -3.660156 94.835938 -2.929688 92.578125 -2.796875 C 90.453125 -2.796875 88.390625 -3.226562 86.390625 -4.09375 C 84.390625 -4.957031 82.425781 -5.820312 80.5 -6.6875 C 78.570312 -7.550781 76.476562 -7.984375 74.21875 -7.984375 C 72.757812 -7.984375 71.296875 -7.878906 69.828125 -7.671875 C 68.367188 -7.472656 67.039062 -7.242188 65.84375 -6.984375 L 64.84375 -6.78125 C 60.988281 -6.113281 57.226562 -5.25 53.5625 -4.1875 C 49.90625 -3.125 46.484375 -2.0625 43.296875 -1 C 41.828125 -0.601562 40.328125 -0.269531 38.796875 0 C 37.273438 0.269531 35.710938 0.40625 34.109375 0.40625 C 24.398438 0.40625 16.222656 -3.453125 9.578125 -11.171875 C 1.992188 -19.816406 -1 -30.457031 0.59375 -43.09375 C 1.257812 -48.144531 3.019531 -52.664062 5.875 -56.65625 C 8.738281 -60.644531 12.367188 -63.707031 16.765625 -65.84375 C 19.023438 -66.90625 21.414062 -67.664062 23.9375 -68.125 C 26.46875 -68.59375 29.0625 -69.03125 31.71875 -69.4375 C 32.382812 -69.4375 32.984375 -69.46875 33.515625 -69.53125 C 34.046875 -69.59375 34.578125 -69.691406 35.109375 -69.828125 L 61.25 -73.421875 C 64.707031 -73.953125 66.867188 -74.984375 67.734375 -76.515625 C 68.597656 -78.046875 69.097656 -79.273438 69.234375 -80.203125 C 69.492188 -82.460938 68.789062 -84.523438 67.125 -86.390625 C 65.46875 -88.253906 63.507812 -89.519531 61.25 -90.1875 C 57.125 -91.78125 52.867188 -92.578125 48.484375 -92.578125 L 47.890625 -92.578125 C 43.765625 -92.441406 39.835938 -91.84375 36.109375 -90.78125 C 32.390625 -89.71875 28.800781 -88.453125 25.34375 -86.984375 C 24.28125 -86.453125 23.015625 -86.1875 21.546875 -86.1875 C 18.617188 -86.1875 15.722656 -87.148438 12.859375 -89.078125 C 10.003906 -91.015625 7.976562 -93.3125 6.78125 -95.96875 C 6.25 -97.03125 6.015625 -97.925781 6.078125 -98.65625 C 6.148438 -99.382812 6.253906 -99.953125 6.390625 -100.359375 C 7.179688 -102.085938 8.738281 -103.648438 11.0625 -105.046875 C 13.394531 -106.441406 15.859375 -107.632812 18.453125 -108.625 C 21.046875 -109.625 23.207031 -110.394531 24.9375 -110.9375 C 34.507812 -113.988281 44.15625 -115.515625 53.875 -115.515625 C 54.800781 -115.515625 55.726562 -115.515625 56.65625 -115.515625 C 57.59375 -115.515625 58.523438 -115.445312 59.453125 -115.3125 C 64.109375 -115.050781 69.257812 -114.15625 74.90625 -112.625 C 80.5625 -111.09375 85.390625 -108.203125 89.390625 -103.953125 C 94.035156 -98.890625 96.828125 -93.832031 97.765625 -88.78125 C 98.828125 -83.0625 99.191406 -77.109375 98.859375 -70.921875 C 98.523438 -64.742188 98.425781 -58.726562 98.5625 -52.875 C 98.5625 -46.882812 98.5625 -40.863281 98.5625 -34.8125 C 98.5625 -28.757812 98.628906 -22.804688 98.765625 -16.953125 C 98.765625 -14.960938 98.863281 -12.835938 99.0625 -10.578125 C 99.257812 -8.316406 98.757812 -6.453125 97.5625 -4.984375 Z M 68.640625 -39.296875 C 69.703125 -41.429688 70.03125 -43.226562 69.625 -44.6875 C 69.226562 -46.15625 68.832031 -47.15625 68.4375 -47.6875 C 67.90625 -48.476562 67.070312 -49.238281 65.9375 -49.96875 C 64.8125 -50.707031 63.25 -51.144531 61.25 -51.28125 L 59.65625 -51.46875 C 58.457031 -51.601562 57.222656 -51.671875 55.953125 -51.671875 C 54.691406 -51.671875 53.332031 -51.671875 51.875 -51.671875 C 49.613281 -51.671875 46.882812 -51.4375 43.6875 -50.96875 C 40.5 -50.507812 37.441406 -49.28125 34.515625 -47.28125 C 32.523438 -45.6875 31.257812 -44.023438 30.71875 -42.296875 C 30.1875 -40.835938 30.125 -38.972656 30.53125 -36.703125 C 31.457031 -32.585938 33.25 -29.398438 35.90625 -27.140625 C 38.570312 -24.878906 41.765625 -23.75 45.484375 -23.75 C 50.140625 -23.75 54.726562 -25.273438 59.25 -28.328125 C 63.78125 -31.390625 66.910156 -35.046875 68.640625 -39.296875 Z M 68.640625 -39.296875 " />
            </g>
        </g>
    </g>
    <g fill="#e0afa1" fill-opacity="1">
        <g transform="translate(908.682968, 220.278728)">
            <g>
                <path
                    d="M 68.640625 -5.1875 C 61.316406 -1.726562 53.929688 0 46.484375 0 C 42.234375 0 37.546875 -0.597656 32.421875 -1.796875 C 27.296875 -2.992188 22.304688 -4.519531 17.453125 -6.375 C 12.597656 -8.238281 8.3125 -10.238281 4.59375 -12.375 C 1.800781 -13.96875 0.335938 -15.59375 0.203125 -17.25 C 0.0664062 -18.914062 0.660156 -20.644531 1.984375 -22.4375 C 3.316406 -24.238281 4.582031 -26.203125 5.78125 -28.328125 C 6.1875 -28.992188 6.617188 -29.625 7.078125 -30.21875 C 7.546875 -30.820312 8.046875 -31.320312 8.578125 -31.71875 C 10.046875 -32.78125 11.578125 -33.113281 13.171875 -32.71875 C 14.765625 -32.320312 16.328125 -31.65625 17.859375 -30.71875 C 19.390625 -29.789062 20.753906 -28.992188 21.953125 -28.328125 C 26.066406 -26.066406 30.582031 -24.40625 35.5 -23.34375 C 40.425781 -22.28125 45.21875 -21.878906 49.875 -22.140625 C 53.332031 -22.410156 56.523438 -23.175781 59.453125 -24.4375 C 62.378906 -25.707031 64.109375 -27.472656 64.640625 -29.734375 C 65.171875 -31.992188 63.578125 -34.648438 59.859375 -37.703125 C 54.929688 -41.566406 49.707031 -44.757812 44.1875 -47.28125 C 38.664062 -49.8125 32.984375 -52.007812 27.140625 -53.875 C 21.679688 -55.601562 17.289062 -58.195312 13.96875 -61.65625 C 10.644531 -65.113281 8.28125 -68.96875 6.875 -73.21875 C 5.476562 -77.476562 5.050781 -81.601562 5.59375 -85.59375 C 6.25 -89.851562 7.90625 -93.910156 10.5625 -97.765625 C 13.226562 -101.617188 16.554688 -105.007812 20.546875 -107.9375 C 24.535156 -110.863281 28.859375 -112.859375 33.515625 -113.921875 C 36.179688 -114.585938 38.773438 -115.085938 41.296875 -115.421875 C 43.828125 -115.753906 46.351562 -115.921875 48.875 -115.921875 C 53.664062 -115.921875 58.390625 -115.351562 63.046875 -114.21875 C 67.703125 -113.09375 72.160156 -111.53125 76.421875 -109.53125 C 80.273438 -107.800781 83.03125 -106.171875 84.6875 -104.640625 C 86.351562 -103.109375 86.953125 -101.28125 86.484375 -99.15625 C 86.023438 -97.03125 84.460938 -94.039062 81.796875 -90.1875 C 79.804688 -87.257812 77.546875 -85.628906 75.015625 -85.296875 C 72.492188 -84.960938 69.769531 -85.328125 66.84375 -86.390625 C 63.914062 -87.453125 60.953125 -88.75 57.953125 -90.28125 C 54.960938 -91.8125 52.035156 -93.109375 49.171875 -94.171875 C 46.316406 -95.234375 43.691406 -95.566406 41.296875 -95.171875 C 38.898438 -94.773438 36.773438 -93.113281 34.921875 -90.1875 C 33.191406 -87.257812 32.691406 -84.695312 33.421875 -82.5 C 34.148438 -80.300781 35.644531 -78.40625 37.90625 -76.8125 C 40.164062 -75.21875 42.789062 -73.890625 45.78125 -72.828125 C 48.78125 -71.765625 51.675781 -70.832031 54.46875 -70.03125 C 57.257812 -69.226562 59.519531 -68.492188 61.25 -67.828125 C 66.300781 -65.972656 71.222656 -63.710938 76.015625 -61.046875 C 80.804688 -58.390625 84.664062 -54.664062 87.59375 -49.875 C 91.582031 -43.226562 93.007812 -37.007812 91.875 -31.21875 C 90.75 -25.4375 88.054688 -20.316406 83.796875 -15.859375 C 79.535156 -11.398438 74.484375 -7.84375 68.640625 -5.1875 Z M 68.640625 -5.1875 " />
            </g>
        </g>
    </g>
    <g fill="#e0afa1" fill-opacity="1">
        <g transform="translate(1006.844869, 220.278728)">
            <g>
                <path
                    d="M 68.640625 -5.1875 C 61.316406 -1.726562 53.929688 0 46.484375 0 C 42.234375 0 37.546875 -0.597656 32.421875 -1.796875 C 27.296875 -2.992188 22.304688 -4.519531 17.453125 -6.375 C 12.597656 -8.238281 8.3125 -10.238281 4.59375 -12.375 C 1.800781 -13.96875 0.335938 -15.59375 0.203125 -17.25 C 0.0664062 -18.914062 0.660156 -20.644531 1.984375 -22.4375 C 3.316406 -24.238281 4.582031 -26.203125 5.78125 -28.328125 C 6.1875 -28.992188 6.617188 -29.625 7.078125 -30.21875 C 7.546875 -30.820312 8.046875 -31.320312 8.578125 -31.71875 C 10.046875 -32.78125 11.578125 -33.113281 13.171875 -32.71875 C 14.765625 -32.320312 16.328125 -31.65625 17.859375 -30.71875 C 19.390625 -29.789062 20.753906 -28.992188 21.953125 -28.328125 C 26.066406 -26.066406 30.582031 -24.40625 35.5 -23.34375 C 40.425781 -22.28125 45.21875 -21.878906 49.875 -22.140625 C 53.332031 -22.410156 56.523438 -23.175781 59.453125 -24.4375 C 62.378906 -25.707031 64.109375 -27.472656 64.640625 -29.734375 C 65.171875 -31.992188 63.578125 -34.648438 59.859375 -37.703125 C 54.929688 -41.566406 49.707031 -44.757812 44.1875 -47.28125 C 38.664062 -49.8125 32.984375 -52.007812 27.140625 -53.875 C 21.679688 -55.601562 17.289062 -58.195312 13.96875 -61.65625 C 10.644531 -65.113281 8.28125 -68.96875 6.875 -73.21875 C 5.476562 -77.476562 5.050781 -81.601562 5.59375 -85.59375 C 6.25 -89.851562 7.90625 -93.910156 10.5625 -97.765625 C 13.226562 -101.617188 16.554688 -105.007812 20.546875 -107.9375 C 24.535156 -110.863281 28.859375 -112.859375 33.515625 -113.921875 C 36.179688 -114.585938 38.773438 -115.085938 41.296875 -115.421875 C 43.828125 -115.753906 46.351562 -115.921875 48.875 -115.921875 C 53.664062 -115.921875 58.390625 -115.351562 63.046875 -114.21875 C 67.703125 -113.09375 72.160156 -111.53125 76.421875 -109.53125 C 80.273438 -107.800781 83.03125 -106.171875 84.6875 -104.640625 C 86.351562 -103.109375 86.953125 -101.28125 86.484375 -99.15625 C 86.023438 -97.03125 84.460938 -94.039062 81.796875 -90.1875 C 79.804688 -87.257812 77.546875 -85.628906 75.015625 -85.296875 C 72.492188 -84.960938 69.769531 -85.328125 66.84375 -86.390625 C 63.914062 -87.453125 60.953125 -88.75 57.953125 -90.28125 C 54.960938 -91.8125 52.035156 -93.109375 49.171875 -94.171875 C 46.316406 -95.234375 43.691406 -95.566406 41.296875 -95.171875 C 38.898438 -94.773438 36.773438 -93.113281 34.921875 -90.1875 C 33.191406 -87.257812 32.691406 -84.695312 33.421875 -82.5 C 34.148438 -80.300781 35.644531 -78.40625 37.90625 -76.8125 C 40.164062 -75.21875 42.789062 -73.890625 45.78125 -72.828125 C 48.78125 -71.765625 51.675781 -70.832031 54.46875 -70.03125 C 57.257812 -69.226562 59.519531 -68.492188 61.25 -67.828125 C 66.300781 -65.972656 71.222656 -63.710938 76.015625 -61.046875 C 80.804688 -58.390625 84.664062 -54.664062 87.59375 -49.875 C 91.582031 -43.226562 93.007812 -37.007812 91.875 -31.21875 C 90.75 -25.4375 88.054688 -20.316406 83.796875 -15.859375 C 79.535156 -11.398438 74.484375 -7.84375 68.640625 -5.1875 Z M 68.640625 -5.1875 " />
            </g>
        </g>
    </g>
    <g clip-path="url(#4c6ae14ddc)">
        <g clip-path="url(#b1d84392a8)">
            <g clip-path="url(#1d3a18a5d2)">
                <path fill="#845158"
                    d="M 206.703125 210.292969 L 206.703125 217.734375 L 265.019531 217.734375 L 265.019531 183.949219 C 252.519531 183.851562 242.464844 173.730469 242.496094 161.226562 C 242.496094 148.761719 252.519531 138.605469 265.019531 138.503906 L 265.019531 104.1875 L 206.703125 104.1875 L 206.703125 111.894531 C 206.703125 112.964844 205.867188 113.804688 204.828125 113.769531 C 203.753906 113.769531 202.917969 112.933594 202.949219 111.894531 L 202.949219 104.1875 L 56.824219 104.1875 L 56.824219 138.570312 C 56.824219 138.570312 56.960938 138.570312 57.027344 138.570312 C 69.5625 138.570312 79.75 148.761719 79.75 161.292969 C 79.75 173.828125 69.5625 184.019531 57.027344 184.019531 C 56.960938 184.019531 56.824219 184.019531 56.824219 184.019531 L 56.824219 217.800781 L 202.949219 217.800781 L 202.949219 210.359375 C 202.949219 209.289062 203.789062 208.449219 204.828125 208.484375 C 205.867188 208.382812 206.738281 209.253906 206.703125 210.292969 Z M 204.828125 128.917969 C 203.753906 128.917969 202.917969 128.082031 202.949219 127.042969 L 202.949219 119.46875 C 202.949219 118.394531 203.789062 117.558594 204.828125 117.589844 C 205.898438 117.589844 206.738281 118.429688 206.703125 119.46875 L 206.703125 127.042969 C 206.703125 128.046875 205.867188 128.886719 204.828125 128.917969 Z M 204.828125 144.066406 C 203.753906 144.066406 202.917969 143.230469 202.949219 142.191406 L 202.917969 134.582031 C 202.917969 133.511719 203.753906 132.671875 204.792969 132.707031 C 205.867188 132.707031 206.703125 133.542969 206.667969 134.582031 L 206.667969 142.15625 C 206.703125 143.195312 205.867188 144.035156 204.828125 144.066406 Z M 204.828125 159.21875 C 203.753906 159.21875 202.917969 158.378906 202.949219 157.339844 L 202.949219 149.765625 C 202.949219 148.691406 203.789062 147.855469 204.828125 147.890625 C 205.898438 147.890625 206.738281 148.726562 206.703125 149.765625 L 206.703125 157.339844 C 206.703125 158.34375 205.867188 159.183594 204.828125 159.21875 Z M 204.859375 174.332031 C 203.789062 174.332031 202.949219 173.496094 202.984375 172.457031 L 202.984375 164.882812 C 202.984375 163.808594 203.820312 162.96875 204.859375 163.003906 C 205.898438 163.039062 206.769531 163.84375 206.738281 164.882812 L 206.738281 172.457031 C 206.703125 173.496094 205.867188 174.332031 204.859375 174.332031 Z M 204.828125 189.445312 C 203.753906 189.445312 202.917969 188.609375 202.949219 187.570312 L 202.949219 179.996094 C 202.949219 178.921875 203.789062 178.085938 204.828125 178.121094 C 205.898438 178.121094 206.738281 178.957031 206.703125 179.996094 L 206.703125 187.570312 C 206.738281 188.609375 205.867188 189.480469 204.828125 189.445312 Z M 204.828125 204.597656 C 203.753906 204.597656 202.917969 203.757812 202.949219 202.71875 L 202.949219 195.144531 C 202.949219 194.070312 203.789062 193.234375 204.828125 193.269531 C 205.898438 193.269531 206.738281 194.105469 206.703125 195.144531 L 206.703125 202.71875 C 206.738281 203.757812 205.867188 204.628906 204.828125 204.597656 Z M 204.828125 204.597656 "
                    fill-opacity="1" fill-rule="nonzero" />
            </g>
        </g>
    </g>
</svg>